<?xml version="1.0" encoding="utf-8"?><!-- Uploaded to: SVG Repo, www.svgrepo.com, Generator: SVG Repo Mixer Tools -->
<svg width="800px" height="800px" viewBox="0 0 64 64" fill="none" xmlns="http://www.w3.org/2000/svg">
<path d="M28.667 15.224V14.224C28.667 13.1631 28.2456 12.1457 27.4954 11.3956C26.7453 10.6454 25.7279 10.224 24.667 10.224H11.667C10.6061 10.224 9.58871 10.6454 8.83856 11.3956C8.08842 12.1457 7.66699 13.1631 7.66699 14.224V49.108C7.66699 50.1689 8.08842 51.1863 8.83856 51.9364C9.58871 52.6866 10.6061 53.108 11.667 53.108H51.667C52.7279 53.108 53.7453 52.6866 54.4954 51.9364C55.2456 51.1863 55.667 50.1689 55.667 49.108V23.224C55.667 22.1631 55.2456 21.1457 54.4954 20.3956C53.7453 19.6454 52.7279 19.224 51.667 19.224H32.667C31.6061 19.224 30.5887 18.8026 29.8386 18.0524C29.0884 17.3023 28.667 16.2849 28.667 15.224Z" stroke="#426AB2" stroke-width="4" stroke-linecap="round" stroke-linejoin="round"/>
</svg>